<svg width="860" height="420" viewBox="0 0 860 420" xmlns="http://www.w3.org/2000/svg" xmlns:xlink="http://www.w3.org/1999/xlink"><defs><path d="M20.511 0H839.49c7.132 0 9.718.743 12.326 2.137a14.538 14.538 0 016.048 6.048C859.257 10.793 860 13.38 860 20.511V399.49c0 7.132-.743 9.718-2.137 12.326a14.538 14.538 0 01-6.048 6.048c-2.608 1.394-5.194 2.137-12.326 2.137H20.51c-7.132 0-9.718-.743-12.326-2.137a14.538 14.538 0 01-6.048-6.048C.743 409.207 0 406.62 0 399.489V20.51c0-7.132.743-9.718 2.137-12.326a14.538 14.538 0 016.048-6.048C10.793.743 13.38 0 20.511 0z" id="a"/><path d="M78.532 20.133c2.78 0 5.284.45 7.516 1.352 2.232.902 4.124 2.158 5.676 3.769 1.552 1.61 2.741 3.525 3.569 5.742.828 2.217 1.242 4.64 1.242 7.272V67h-6.297l-.318-.004c-1.144-.027-2.02-.203-2.63-.528-.665-.355-1.22-1.094-1.663-2.217l-.976-2.527-.491.41a42.887 42.887 0 01-2.834 2.161 21.077 21.077 0 01-3.303 1.885c-1.138.517-2.35.901-3.636 1.153-1.286.25-2.712.376-4.28.376-2.098 0-4.004-.273-5.719-.82-1.714-.547-3.17-1.352-4.367-2.416-1.198-1.065-2.121-2.387-2.772-3.969-.65-1.581-.975-3.407-.975-5.476 0-1.626.414-3.296 1.241-5.01.828-1.715 2.262-3.274 4.301-4.678 2.04-1.404 4.789-2.58 8.248-3.525 3.458-.946 7.818-1.478 13.08-1.596v-1.951l-.004-.363c-.048-2.502-.6-4.325-1.659-5.468-1.108-1.197-2.682-1.796-4.722-1.796-1.626 0-2.956.178-3.99.532a17.94 17.94 0 00-2.772 1.197c-.813.444-1.604.843-2.372 1.198-.769.354-1.685.532-2.75.532-.945 0-1.75-.23-2.416-.688a5.105 5.105 0 01-1.574-1.707l-2.483-4.3.494-.427c2.648-2.24 5.565-3.923 8.751-5.05 3.385-1.197 7.013-1.795 10.885-1.795zm47.71.177c3.607 0 6.77.576 9.49 1.73 2.719 1.152 5.172 2.837 7.36 5.054l-3.636 4.833-.206.243c-.34.39-.671.708-.992.954-.384.296-.93.444-1.64.444-.68 0-1.293-.163-1.84-.488-.547-.325-1.16-.687-1.84-1.086-.68-.4-1.478-.762-2.395-1.087-.916-.325-2.054-.488-3.414-.488-1.685 0-3.14.31-4.367.932a8.088 8.088 0 00-3.038 2.66c-.798 1.153-1.389 2.564-1.773 4.235-.385 1.67-.577 3.554-.577 5.653 0 4.404.85 7.789 2.55 10.154 1.7 2.365 4.042 3.547 7.028 3.547 1.596 0 2.86-.2 3.79-.599.932-.399 1.723-.842 2.373-1.33.65-.488 1.249-.938 1.796-1.352.547-.414 1.234-.621 2.062-.621 1.093 0 1.921.4 2.483 1.197l3.99 4.922-.389.436c-1.302 1.428-2.665 2.605-4.09 3.532a22.465 22.465 0 01-4.81 2.395c-1.64.576-3.289.975-4.944 1.197a36.402 36.402 0 01-4.833.332c-2.808 0-5.49-.532-8.048-1.596a19.716 19.716 0 01-6.74-4.633c-1.936-2.025-3.473-4.516-4.61-7.472-1.139-2.956-1.708-6.325-1.708-10.11 0-3.31.495-6.406 1.486-9.288.99-2.882 2.453-5.38 4.39-7.494 1.935-2.113 4.33-3.776 7.182-4.988 2.853-1.212 6.156-1.818 9.91-1.818zM368.998.623V67h-8.513l-.28-.007c-.735-.038-1.358-.228-1.87-.57-.577-.384-.984-.96-1.22-1.729l-1.064-3.503-.462.48a26.669 26.669 0 01-2.42 2.18 18.126 18.126 0 01-3.26 2.063 17.236 17.236 0 01-3.768 1.33c-1.345.31-2.801.465-4.368.465-2.394 0-4.611-.532-6.65-1.596-2.04-1.064-3.8-2.601-5.277-4.611-1.478-2.01-2.638-4.471-3.48-7.383-.843-2.911-1.265-6.23-1.265-9.954 0-3.43.473-6.614 1.42-9.555.945-2.942 2.283-5.484 4.012-7.627a18.634 18.634 0 016.23-5.032c2.424-1.212 5.099-1.818 8.025-1.818 2.365 0 4.368.347 6.008 1.042a17.342 17.342 0 014.457 2.727V.623h13.745zM24.087 2.397l.7.003c4.162.041 7.727.454 10.695 1.238 3.134.828 5.69 1.995 7.671 3.503 1.98 1.508 3.422 3.34 4.323 5.498.902 2.158 1.353 4.567 1.353 7.228 0 1.448-.207 2.845-.621 4.19a12.334 12.334 0 01-1.951 3.79c-.887 1.183-2.025 2.255-3.414 3.215-1.39.961-3.06 1.796-5.01 2.506 4.256 1.034 7.404 2.712 9.444 5.032 2.04 2.32 3.06 5.299 3.06 8.935 0 2.749-.533 5.306-1.597 7.67-1.064 2.365-2.623 4.427-4.678 6.186-2.054 1.759-4.589 3.133-7.604 4.124-3.015.99-6.459 1.485-10.331 1.485H.32V2.397h23.766zM160.567.623v37.201h2.039l.278-.004c.723-.023 1.288-.14 1.695-.35.458-.237.894-.666 1.308-1.286l8.69-12.948.172-.248c.465-.642 1.007-1.121 1.624-1.436.695-.355 1.574-.533 2.639-.533h12.592l-11.883 16.362-.285.377c-.482.616-1 1.17-1.555 1.663a15.296 15.296 0 01-2.15 1.596c1.33 1.005 2.483 2.335 3.458 3.99L192.136 67h-12.415l-.34-.006c-.891-.034-1.672-.202-2.342-.504-.754-.34-1.368-.938-1.84-1.796l-8.691-16.272-.125-.214c-.375-.619-.762-1.028-1.161-1.228-.444-.221-1.109-.332-1.995-.332h-2.66V67H146.82V.623h13.745zm107.735 1.774v11.528h-26.516v15.076h20.308v11.085h-20.308v15.386h26.516V67H226.71V2.397h41.59zm34.54 17.913c2.513 0 4.738.436 6.674 1.308 1.936.872 3.57 2.084 4.9 3.636 1.33 1.552 2.335 3.4 3.015 5.542.68 2.143 1.02 4.471 1.02 6.984V67h-13.746V37.78l-.005-.37c-.054-2.07-.57-3.698-1.547-4.884-1.035-1.257-2.557-1.885-4.567-1.885a9.565 9.565 0 00-4.257.976c-1.33.65-2.6 1.522-3.813 2.616V67h-13.745V21.02h8.513l.28.007c.735.037 1.358.227 1.87.569.577.384.983.96 1.22 1.73l.798 2.66.536-.49a33.136 33.136 0 012.213-1.816 16.1 16.1 0 013.037-1.796 18.028 18.028 0 013.503-1.153c1.257-.28 2.624-.421 4.102-.421zM83.145 48.289l-.543.025c-2.506.125-4.586.353-6.241.684-1.774.355-3.178.798-4.212 1.33-1.035.532-1.752 1.138-2.151 1.818-.399.68-.599 1.419-.599 2.217 0 1.567.43 2.668 1.286 3.303.858.636 2.114.954 3.77.954 1.773 0 3.325-.31 4.655-.931s2.675-1.626 4.035-3.016V48.29zM348.07 30.242c-1.272 0-2.44.251-3.503.754-1.065.502-1.988 1.308-2.772 2.416-.783 1.109-1.396 2.55-1.84 4.324-.443 1.773-.665 3.916-.665 6.429 0 2.424.178 4.463.532 6.119.355 1.655.85 2.993 1.486 4.013.635 1.02 1.396 1.751 2.283 2.194.887.444 1.877.666 2.971.666 1.005 0 1.914-.097 2.727-.289a9.586 9.586 0 002.239-.82 9.77 9.77 0 001.929-1.33 16.686 16.686 0 001.796-1.862v-19.51l-.268-.281c-.985-1.004-2.027-1.716-3.124-2.136a10.515 10.515 0 00-3.791-.687zM25.772 39.598H15.308v16.095H25.86c1.98 0 3.599-.251 4.855-.753 1.256-.503 2.239-1.153 2.948-1.951a6.545 6.545 0 001.464-2.705c.266-1.005.399-2.025.399-3.06 0-1.182-.155-2.246-.466-3.192a5.28 5.28 0 00-1.596-2.394c-.754-.65-1.751-1.153-2.993-1.508s-2.808-.532-4.7-.532zm190.876-5.1v11.086h-23.944V34.499h23.944zM24.087 13.616h-8.78v15.962h7.805c1.655 0 3.148-.118 4.478-.355 1.33-.236 2.46-.65 3.392-1.241.931-.591 1.64-1.404 2.128-2.439.488-1.035.732-2.335.732-3.902 0-1.537-.192-2.815-.577-3.835-.384-1.02-.975-1.84-1.773-2.461-.798-.62-1.81-1.064-3.037-1.33-1.227-.266-2.683-.4-4.368-.4z" id="c"/></defs><g fill="none" fill-rule="evenodd"><mask id="b" fill="#fff"><use xlink:href="#a"/></mask><use fill="#F3F6F9" xlink:href="#a"/><g mask="url(#b)"><g transform="translate(-39 -129)"><path fill="#646CB5" fill-rule="nonzero" d="M39 129h860v420H39z"/><path d="M857.98 402.98h-99.47a5.77 5.77 0 01-5.49-7.56l63.3-194.84a5.78 5.78 0 015.5-4h99.47a5.78 5.78 0 015.49 7.56l-63.31 194.84a5.769 5.769 0 01-5.49 4z" fill="#FFF" fill-rule="nonzero" opacity=".2"/><path d="M554.84 333.67h17.29c31.88-150.9-37-333.67-37-333.67H0v609.22c99.58 78.38 346.58 25.11 483.74-117.5l59.63-150.32a12.31 12.31 0 0111.47-7.73z" fill="#333970" fill-rule="nonzero"/><path d="M648.13 333.67h-76c-.67 3.16-1.4 6.3-2.21 9.42-14.71 56.63-45.65 106.55-86.16 148.68l-24.2 61h113.23l82.65-208.36a7.84 7.84 0 00-7.31-10.74z" fill="#292C66" fill-rule="nonzero"/><circle fill="#5D6BA8" fill-rule="nonzero" cx="336.56" cy="531.67" r="164"/><path d="M482.84 363.48h-29.58a3 3 0 01-2.76-4.18 3 3 0 012.76-1.82h29.58a3 3 0 012.76 4.19 3 3 0 01-2.76 1.81z" fill="#FFF" fill-rule="nonzero"/><path d="M500.07 363.48h-1.23a3 3 0 01-2.76-4.18 3 3 0 012.76-1.82h2.76a2 2 0 011.82 2.76l-.58 1.43a3 3 0 01-2.77 1.81z" fill="#FFF" fill-rule="nonzero" opacity=".3"/><path d="M452.38 391.86h-1.21a3 3 0 01-2.75-4.18 3 3 0 012.75-1.82h1.21a3 3 0 012.76 4.19 3 3 0 01-2.76 1.81zM448.28 401.88h-1.21a3 3 0 01-2.75-4.19 3 3 0 012.75-1.81h1.21a3 3 0 012.76 4.18 3 3 0 01-2.76 1.82zM444.18 411.9h-1.21a3 3 0 01-2.75-4.19 3 3 0 012.75-1.81h1.21a3 3 0 012.76 4.18 3 3 0 01-2.76 1.82z" fill="#FFF" fill-rule="nonzero"/><path d="M506.08 351.15h-47.63a3 3 0 01-2.76-4.19 3 3 0 012.76-1.81h47.63a3 3 0 012.76 4.18 3 3 0 01-2.76 1.82zM493.09 401.88h-25.38a3 3 0 01-2.76-4.19 3 3 0 012.76-1.81h25.38a3 3 0 012.75 4.18 3 3 0 01-2.75 1.82z" fill="#9F6" fill-rule="nonzero"/><path d="M471.07 411.9h-13.68a3 3 0 01-2.76-4.19 3 3 0 012.76-1.81h13.68a3 3 0 012.75 4.18 3 3 0 01-2.75 1.82z" fill="#FFF" fill-rule="nonzero" opacity=".3"/><path d="M440.08 421.92h-1.24a3 3 0 01-2.75-4.19 3 3 0 012.75-1.81h1.21a3 3 0 012.75 4.18 3 3 0 01-2.72 1.82zM460.96 442.05h-10.12a3 3 0 01-2.76-4.19 3 3 0 012.76-1.81H461a3 3 0 012.76 4.18 3 3 0 01-2.8 1.82zM474.49 442.05h-1.85a3 3 0 01-2.76-4.19 3 3 0 012.76-1.81h1.85a3 3 0 012.75 4.18 3 3 0 01-2.75 1.82zM488.67 442.05h-1.2a3 3 0 01-2.76-4.19 3 3 0 012.76-1.81h1.2a3 3 0 012.76 4.18 3 3 0 01-2.76 1.82zM509.34 363.48a2 2 0 01-1.82-2.75l.89-2.05a2 2 0 011.81-1.2 2 2 0 011.81 2.76l-.88 2.05a2 2 0 01-1.81 1.19z" fill="#FFF" fill-rule="nonzero"/><path d="M558.53 363.48h-28.69a3 3 0 01-2.76-4.18 3 3 0 012.76-1.82h28.72a3 3 0 012.76 4.19 3 3 0 01-2.79 1.81z" fill="#FFF" fill-rule="nonzero" opacity=".3"/><path d="M477.71 375.82h-29.58a3 3 0 01-2.75-4.19 3 3 0 012.75-1.81h29.58a3 3 0 012.76 4.18 3 3 0 01-2.76 1.82z" fill="#FFF" fill-rule="nonzero"/><path d="M506.94 375.82H493.7a3 3 0 01-2.76-4.19 3 3 0 012.76-1.81h13.24a3 3 0 012.76 4.18 3 3 0 01-2.76 1.82z" fill="#FFF" fill-rule="nonzero" opacity=".3"/><path d="M516.22 375.82a2 2 0 01-1.82-2.76l.88-2a2 2 0 011.82-1.19 2 2 0 011.81 2.75l-.88 2a2 2 0 01-1.81 1.2zM540.48 375.82h-14.11a3 3 0 01-2.75-4.19 3 3 0 012.75-1.81h14.11a3 3 0 012.75 4.18 3 3 0 01-2.75 1.82z" fill="#FFF" fill-rule="nonzero"/><path d="M478.57 338.82h-15a3 3 0 01-2.73-4.15 3 3 0 012.76-1.81h15a3 3 0 012.76 4.18 3 3 0 01-2.79 1.78z" fill="#FFF" fill-rule="nonzero" opacity=".3"/><path d="M806.14 641.98h-9.58c-8 0-12.44-6.52-9.82-14.56l170.32-524.18c2.61-8 11.24-14.56 19.28-14.56h9.58c8 0 12.44 6.52 9.83 14.56L825.43 627.42c-2.59 8.04-11.25 14.56-19.29 14.56zM861.92 640.87h-9.58c-8 0-12.44-6.52-9.83-14.56l170.33-524.18c2.61-8 11.25-14.56 19.29-14.56h9.58c8 0 12.44 6.52 9.82 14.56L881.2 626.31c-2.61 8.04-11.24 14.56-19.28 14.56z" fill="#333970" fill-rule="nonzero"/><path d="M779.69 290.67h-5.51a.37.37 0 01-.35-.53l.68-2.09a.77.77 0 01.69-.52h5.51a.37.37 0 01.36.52l-.69 2.09a.78.78 0 01-.69.53zM812.73 290.67h-29.44a.38.38 0 01-.36-.53l.68-2.09a.8.8 0 01.7-.52h29.44a.36.36 0 01.35.52l-.68 2.09a.78.78 0 01-.69.53zM776.23 301.37h-5.52a.37.37 0 01-.35-.53l.68-2.09a.8.8 0 01.69-.52h5.52a.36.36 0 01.35.52l-.68 2.09a.78.78 0 01-.69.53zM788.41 301.37h-8.57a.37.37 0 01-.35-.53l.68-2.09a.77.77 0 01.69-.52h8.59a.37.37 0 01.35.52l-.68 2.09a.81.81 0 01-.71.53zM798.03 301.37h-5.06a.37.37 0 01-.35-.53l.68-2.09a.77.77 0 01.69-.52h5.06a.36.36 0 01.35.52l-.68 2.09a.78.78 0 01-.69.53z" fill="#9F6" opacity=".3"/><path d="M806.74 296.04h-34.29a.38.38 0 01-.36-.53l.68-2.09a.8.8 0 01.7-.52h34.29a.36.36 0 01.35.52l-.68 2.09a.78.78 0 01-.69.53z" fill="#9F6"/><path d="M792.29 306.67h-23.31a.37.37 0 01-.35-.53l.68-2.09a.77.77 0 01.69-.52h23.31a.36.36 0 01.35.52l-.68 2.09a.78.78 0 01-.69.53z" fill="#9F6" opacity=".3"/><path d="M792.25 285.38h-16.34a.37.37 0 01-.35-.53l.68-2.09a.77.77 0 01.69-.52h16.34a.37.37 0 01.35.52l-.68 2.09a.81.81 0 01-.69.53z" fill="#9F6"/><path d="M805.84 285.38h-9.19a.38.38 0 01-.36-.53l.68-2.09a.8.8 0 01.7-.52h9.17a.36.36 0 01.35.52l-.68 2.09a.78.78 0 01-.67.53z" fill="#9F6" opacity=".3"/><path d="M783.49 322.67h-19.65a.37.37 0 01-.36-.52l.69-2.1a.77.77 0 01.69-.52h19.7a.36.36 0 01.35.52l-.68 2.1a.79.79 0 01-.74.52z" fill="#9F6"/><path d="M789.37 328.02h-27.32a.37.37 0 01-.35-.52l.68-2.1a.8.8 0 01.69-.52h27.32a.36.36 0 01.35.52l-.68 2.1a.79.79 0 01-.69.52zM777.02 317.36h-11.5a.37.37 0 01-.35-.53l.68-2.09a.77.77 0 01.69-.52h11.5a.36.36 0 01.35.52l-.68 2.09a.78.78 0 01-.69.53zM787.37 317.36h-5.06a.37.37 0 01-.35-.53l.68-2.09a.8.8 0 01.69-.52h5.06a.36.36 0 01.35.52l-.68 2.09a.78.78 0 01-.69.53zM793.84 312.03h-26.63a.37.37 0 01-.35-.53l.68-2.09a.77.77 0 01.69-.52h26.63a.36.36 0 01.35.52l-.68 2.09a.78.78 0 01-.69.53zM806.96 312.03h-9.19a.37.37 0 01-.35-.53l.68-2.09a.77.77 0 01.69-.52h9.19a.36.36 0 01.35.52l-.68 2.09a.78.78 0 01-.69.53zM763.59 338.67h-5a.36.36 0 01-.35-.52l.68-2.1a.77.77 0 01.69-.52h5a.36.36 0 01.35.52l-.68 2.1a.79.79 0 01-.69.52zM794.03 338.67h-27a.37.37 0 01-.35-.52l.68-2.1a.8.8 0 01.69-.52h27.05a.36.36 0 01.35.52l-.68 2.1a.79.79 0 01-.74.52zM759.42 349.34h-4.29a.37.37 0 01-.36-.52l.69-2.1a.77.77 0 01.69-.52h4.29a.37.37 0 01.36.52l-.69 2.1a.79.79 0 01-.69.52zM769.34 349.34h-6.8a.37.37 0 01-.35-.52l.68-2.1a.77.77 0 01.69-.52h6.8a.36.36 0 01.35.52l-.68 2.1a.79.79 0 01-.69.52zM777.17 349.34h-3.92a.37.37 0 01-.36-.52l.68-2.1a.8.8 0 01.7-.52h3.92a.37.37 0 01.36.52l-.69 2.1a.79.79 0 01-.69.52zM784.58 344.01h-27.74a.36.36 0 01-.35-.52l.68-2.1a.77.77 0 01.69-.52h27.72a.37.37 0 01.36.52l-.68 2.1a.81.81 0 01-.68.52zM772.18 354.67H753.4a.37.37 0 01-.36-.52l.68-2.1a.8.8 0 01.7-.52h18.78a.36.36 0 01.35.52l-.68 2.1a.78.78 0 01-.69.52zM773.43 333.35h-13.11a.37.37 0 01-.35-.52l.68-2.1a.77.77 0 01.69-.52h13.11a.36.36 0 01.35.52l-.68 2.1a.79.79 0 01-.69.52z" fill="#9F6" opacity=".3"/><path d="M784.5 333.35h-7.29a.37.37 0 01-.35-.52l.68-2.1a.8.8 0 01.69-.52h7.29a.37.37 0 01.36.52l-.68 2.1a.81.81 0 01-.7.52zM764.05 370.67H748.2a.36.36 0 01-.35-.52l.68-2.1a.77.77 0 01.69-.52h15.85a.37.37 0 01.35.52l-.68 2.1a.8.8 0 01-.69.52z" fill="#9F6"/><path d="M768.51 375.99h-22a.36.36 0 01-.35-.52l.68-2.1a.77.77 0 01.69-.52h22a.37.37 0 01.36.52l-.69 2.1a.77.77 0 01-.69.52zM759.1 365.33h-9.17a.36.36 0 01-.35-.52l.68-2.1a.77.77 0 01.69-.52h9.17a.36.36 0 01.35.52l-.68 2.1a.77.77 0 01-.69.52zM767.53 365.33h-3.92a.37.37 0 01-.36-.52l.68-2.1a.8.8 0 01.7-.52h3.92a.36.36 0 01.35.52l-.68 2.1a.77.77 0 01-.69.52zM773.15 360h-21.49a.36.36 0 01-.35-.52l.68-2.1a.78.78 0 01.69-.52h21.49a.36.36 0 01.35.52l-.68 2.1a.77.77 0 01-.69.52zM783.84 360h-7.29a.36.36 0 01-.35-.52l.68-2.1a.77.77 0 01.69-.52h7.27a.36.36 0 01.35.52l-.68 2.1a.77.77 0 01-.67.52zM809.71 367.52h5.51a.36.36 0 01.35.52l-.68 2.1a.77.77 0 01-.69.52h-5.51a.37.37 0 01-.36-.52l.68-2.1a.8.8 0 01.7-.52zM813.17 356.86h5.51a.37.37 0 01.36.52l-.68 2.1a.8.8 0 01-.7.52h-5.51a.36.36 0 01-.35-.52l.68-2.1a.77.77 0 01.69-.52zM805.45 362.19h11.5a.36.36 0 01.35.52l-.68 2.1a.77.77 0 01-.69.52h-11.5a.36.36 0 01-.35-.52l.68-2.1a.77.77 0 01.69-.52zM809.16 351.53h11.26a.37.37 0 01.35.52l-.68 2.1a.8.8 0 01-.69.52h-11.26a.36.36 0 01-.35-.52l.68-2.1a.77.77 0 01.69-.52z" fill="#9F6" opacity=".3"/><path d="M805.84 372.85h7.65a.36.36 0 01.35.52l-.68 2.1a.77.77 0 01-.69.52h-7.63a.36.36 0 01-.35-.52l.68-2.1a.77.77 0 01.67-.52z" fill="#9F6"/><path d="M817.96 335.54h7.65a.36.36 0 01.35.52l-.68 2.1a.79.79 0 01-.69.52h-7.65a.36.36 0 01-.35-.52l.68-2.1a.77.77 0 01.69-.52zM812.08 330.21h15.26a.37.37 0 01.36.52l-.68 2.1a.81.81 0 01-.7.52h-15.26a.36.36 0 01-.35-.52l.68-2.1a.77.77 0 01.69-.52zM812.38 340.87h11.46a.36.36 0 01.35.52l-.68 2.1a.79.79 0 01-.69.52h-11.5a.36.36 0 01-.35-.52l.68-2.1a.77.77 0 01.73-.52zM807.57 346.2h14.58a.36.36 0 01.35.52l-.68 2.1a.79.79 0 01-.69.52h-14.58a.36.36 0 01-.35-.52l.68-2.1a.77.77 0 01.69-.52zM825.84 319.55h5a.36.36 0 01.35.52l-.68 2.1a.79.79 0 01-.69.52h-5a.36.36 0 01-.35-.52l.68-2.1a.77.77 0 01.69-.52z" fill="#9F6" opacity=".3"/><path d="M829.98 308.89h4.29a.36.36 0 01.35.52l-.68 2.09a.78.78 0 01-.69.53h-4.29a.38.38 0 01-.36-.53l.68-2.09a.8.8 0 01.7-.52z" fill="#9F6"/><path d="M816.84 314.22h15.68a.36.36 0 01.35.52l-.68 2.09a.78.78 0 01-.69.53h-15.66a.37.37 0 01-.35-.53l.68-2.09a.8.8 0 01.67-.52z" fill="#9F6" opacity=".3"/><path d="M829.27 303.56H836a.37.37 0 01.36.52l-.68 2.09a.81.81 0 01-.7.53h-6.73a.37.37 0 01-.35-.53l.68-2.09a.77.77 0 01.69-.52zM815.97 324.88h13.11a.37.37 0 01.35.52l-.68 2.1a.81.81 0 01-.69.52h-13.11a.36.36 0 01-.35-.52l.68-2.1a.77.77 0 01.69-.52z" fill="#9F6"/><path d="M825.35 287.57h15.85a.36.36 0 01.35.52l-.68 2.09a.78.78 0 01-.69.53h-15.85a.37.37 0 01-.35-.53l.68-2.09a.77.77 0 01.69-.52zM832.94 282.24h10a.36.36 0 01.35.52l-.68 2.09a.78.78 0 01-.69.53h-10a.38.38 0 01-.36-.53l.68-2.09a.8.8 0 01.7-.52zM830.3 292.9h9.17a.36.36 0 01.35.52l-.68 2.09a.78.78 0 01-.69.53h-9.17a.37.37 0 01-.35-.53l.68-2.09a.77.77 0 01.69-.52zM828.3 298.23h9.44a.37.37 0 01.35.52l-.68 2.09a.81.81 0 01-.69.53h-9.44a.37.37 0 01-.35-.53l.68-2.09a.77.77 0 01.69-.52z" fill="#9F6" opacity=".3"/><path d="M519.24 342.29a1.9 1.9 0 01-1.82-2.48l4.57-14.77h-6.36a1.93 1.93 0 01-1.8-2.6l7.64-20.15a1.91 1.91 0 011.79-1.24h18.23a1.92 1.92 0 011.47 3.15l-8.47 10.06h7a1.91 1.91 0 011.41 3.21l-22.24 24.2a1.92 1.92 0 01-1.42.62zm-.84-21.08h6.19a1.91 1.91 0 011.83 2.48l-2.82 9.12 13.53-14.72h-6.76a1.92 1.92 0 01-1.47-3.15l8.47-10.06h-12.78l-6.19 16.33z" fill="#FFF" fill-rule="nonzero"/><path d="M536.23 392.56a5.81 5.81 0 00-5 3.69c-.74 2 .3 3.68 2.34 3.68a5.83 5.83 0 005-3.68c.74-2.04-.31-3.69-2.34-3.69zm4 7a11.25 11.25 0 01-8 4c-2.88 0-4.77-1.65-5.11-4.05-3.81 1-6.64 2.59-7.17 4.05-.82 2.25 3.54 4.91 10.49 4.91s13.24-2.66 14.06-4.91c.51-1.41-1.13-3.03-4.24-4h-.03zm-27.92 11.42a3.89 3.89 0 00-3.35 2.45 1.67 1.67 0 001.57 2.46 3.87 3.87 0 003.34-2.46 1.65 1.65 0 00-1.34-2.44l-.22-.01zm29.59-.36a31.89 31.89 0 01-13.3 2.81c-4.75 0-8.75-1-11.25-2.81l-1 2.81c-.82 2.25 3.53 4.91 10.49 4.91 6.96 0 13.24-2.66 14.06-4.91l1-2.81zm-3.57 9.82a32 32 0 01-13.3 2.81c-4.75 0-8.76-1-11.25-2.81l-1 2.81c-.81 2.25 3.54 4.91 10.49 4.91s13.24-2.66 14.06-4.91l1-2.81zm3 5.26c-.178 0-.356.02-.53.06a3.6 3.6 0 00-.44.12l-.21.08.18-.07-.24.09h.06c-.153.06-.3.133-.44.22l-.19.12.14-.09-.23.14.09-.05a1.07 1.07 0 00-.22.15l.13-.1-.18.13h.05l-.18.14.13-.11-.21.18.08-.07-.19.17.11-.1-.16.15.05-.05-.18.18.13-.13a1.21 1.21 0 00-.16.16l-.13.14.1-.11c-.07.07-.13.15-.2.23a1 1 0 01-.08.11l.08-.11c-.107.153-.207.303-.3.45a4.66 4.66 0 00-.22.45v.06l-.06.19v.06-.06a1.63 1.63 0 001.62 2.26 3.86 3.86 0 003.35-2.45 1.66 1.66 0 00-1.53-2.57l-.02.03zm-3.78-36.82c3.51 0 5.56 2.46 5.09 5.76 5.19 1.41 8.14 4.54 6.84 8.66l-.11.31-7.15 19.64c2.71 0 4.11 2.2 3.13 4.91a7.78 7.78 0 01-6.7 4.91 3.15 3.15 0 01-3.43-3 31.76 31.76 0 01-13.76 3c-9.31 0-15.75-3.93-13.61-9.82l1.79-4.91c-2.71 0-4.11-2.2-3.12-4.91a7.77 7.77 0 016.7-4.91l1.78-4.91c1.56-4.27 6.89-7.52 13.27-9 1.95-3.27 5.78-5.73 9.3-5.73h-.02z" fill="#9F6"/><g fill="#9F6" fill-rule="nonzero"><path d="M498.14 433.99h46.03l16.75-46.03h-46.03z"/><path d="M510.6 381.21h59.53l-21.67 59.53h-59.53z"/></g><path d="M731.05 329.37c-1.12-1.76-4-1.76-6.38 0l-3.68 2.7 4.06 6.38 3.68-2.7c2.3-1.69 3.35-4.37 2.46-6.15l-.14-.23zm-16.62 0c-1.12-1.76-4-1.76-6.38 0s-3.44 4.62-2.32 6.38l1.72 2.7 8.7-6.38-1.72-2.7zm23.8 9.79a2.69 2.69 0 00-2.33 1.71 1.16 1.16 0 001.09 1.71 2.71 2.71 0 002.33-1.71 1.15 1.15 0 00-1.09-1.71zm-21.62-1.71c1.89 0 2.87 1.53 2.18 3.42a5.42 5.42 0 01-4.67 3.42c-1.89 0-2.86-1.53-2.17-3.42a5.39 5.39 0 014.66-3.42zm22.87-1.71c2.83 0 4.3 2.29 3.26 5.13a8.11 8.11 0 01-7 5.13c-2.83 0-4.29-2.3-3.26-5.13a8.1 8.1 0 017-5.13zm-21.79-1.25l-8.7 6.38 4.05 6.38 8.71-6.38-4.06-6.38zm-12 8.8l-3.69 2.7c-2.4 1.76-3.44 4.62-2.32 6.38 1.12 1.76 4 1.76 6.38 0l3.68-2.7-4.05-6.38zm17.59 0l-8.7 6.38 1.72 2.7c1.07 1.68 3.73 1.76 6.07.22l.31-.22c2.4-1.76 3.44-4.62 2.32-6.38l-1.72-2.7zm-.15-16.34c4.23-3.1 9.25-3.1 11.22 0 1.97 3.1.15 8.12-4.08 11.22l-3.68 2.7 1.71 2.7c1.91 3 .26 7.81-3.69 10.92l-.39.3c-4.22 3.1-9.25 3.1-11.22 0l-1.72-2.7-3.68 2.7c-4.09 3-8.94 3.09-11 .28l-.19-.28c-2-3.1-.14-8.12 4.08-11.22l3.69-2.7-1.72-2.7c-1.91-3-.25-7.81 3.69-10.93l.39-.29c4.23-3.1 9.25-3.1 11.22 0l1.72 2.7 3.65-2.7z" fill="#FFF" fill-rule="nonzero"/><path d="M842.55 239.9c4.34.71 6.41 4.69 4.66 9.48a14.56 14.56 0 01-3.9 5.66l-2-3.2a7.51 7.51 0 001.51-2.46c.86-2.33 0-4.31-1.88-4.95l1.61-4.53zm-3 0l-1.64 4.53a8.43 8.43 0 00-5.5 4.95c-1 2.86.44 5.17 3.29 5.17a6.47 6.47 0 002.68-.62l2 3.2a12.91 12.91 0 01-6.33 1.85c-5.3 0-8-4.3-6.1-9.6a15.49 15.49 0 0111.64-9.48h-.04zm13.8 4.43a4.61 4.61 0 012.76.57 2.5 2.5 0 011.09 1.72 5 5 0 01-.39 2.63l-.12.34-5.84 16a8.16 8.16 0 01-1.65 3 6.93 6.93 0 01-2.35 1.72 6.63 6.63 0 01-2.83.57h-1l1.08-2.95h.89a3.34 3.34 0 001.3-.18h.11a2 2 0 00.69-.51 3.79 3.79 0 00.71-1.33l.09-.25 5.93-16.3a2.59 2.59 0 00.26-1.33.7.7 0 00-.32-.51 2.15 2.15 0 00-1.25-.21h-.89l1.07-3 .66.02zm-27.22 0l-1.07 3h-.89a3.2 3.2 0 00-1.3.17h-.11a2.07 2.07 0 00-.7.51 3.65 3.65 0 00-.7 1.33l-6 16.55a2.65 2.65 0 00-.27 1.33.75.75 0 00.33.51c.22.15.47.21 1.25.22h.89l-1.08 2.95h-.64a4.9 4.9 0 01-2.6-.47l-.16-.1a2.49 2.49 0 01-1.1-1.72 5.17 5.17 0 01.39-2.63l.13-.34 5.84-16a8 8 0 011.65-3 7 7 0 012.34-1.72 6.68 6.68 0 012.84-.57h1l-.04-.02zm15.5 16.24l-3.76 10.33h-3l3.76-10.33h3zm-5 1.47l-3.22 8.86h-3l3.22-8.86h3zm-5.5 3l-2.15 5.9h-2.95l2.15-5.9h2.95zm-3.35-3l-3.23 8.86h-2.95l3.22-8.86h2.96z" fill="#FFF"/><circle fill="#FFF" fill-rule="nonzero" cx="277.76" cy="458.67" r="3.58"/><circle fill="#FFF" fill-rule="nonzero" cx="300.49" cy="458.67" r="3.58"/><circle fill="#FFF" fill-rule="nonzero" cx="289.13" cy="469.78" r="3.58"/><circle fill="#FFF" fill-rule="nonzero" cx="311.88" cy="458.67" r="3.58"/><circle fill="#FFF" fill-rule="nonzero" cx="334.61" cy="458.67" r="3.58"/><circle fill="#FFF" fill-rule="nonzero" cx="323.25" cy="469.78" r="3.58"/><circle fill="#FFF" fill-rule="nonzero" cx="346" cy="458.67" r="3.58"/><circle fill="#FFF" fill-rule="nonzero" cx="368.74" cy="458.67" r="3.58"/><circle fill="#FFF" fill-rule="nonzero" cx="300.49" cy="431.05" r="3.58"/><circle fill="#FFF" fill-rule="nonzero" cx="300.51" cy="442.17" r="3.58"/><circle fill="#FFF" fill-rule="nonzero" cx="289.13" cy="414.55" r="3.58"/><path fill="#FFF" fill-rule="nonzero" d="M300.99 442.17h-1v-10.96l-11.27-16.37.82-.57 11.45 16.63zM346 458.17h22.73v1H346zM289 470.62l-11.59-11.6.7-.71L289 469.2l11.31-11.31.71.71z"/><circle fill="#9F6" fill-rule="nonzero" cx="266.39" cy="469.78" r="3.58"/><circle fill="#9F6" fill-rule="nonzero" cx="300.51" cy="469.78" r="3.58"/><circle fill="#9F6" fill-rule="nonzero" cx="334.63" cy="469.78" r="3.58"/><circle fill="#9F6" fill-rule="nonzero" cx="357.37" cy="469.78" r="3.58"/><circle fill="#9F6" fill-rule="nonzero" cx="266.39" cy="442.17" r="3.58"/><circle fill="#9F6" fill-rule="nonzero" cx="277.76" cy="431.05" r="3.58"/><circle fill="#9F6" fill-rule="nonzero" cx="289.13" cy="442.17" r="3.58"/><circle fill="#9F6" fill-rule="nonzero" cx="311.88" cy="431.05" r="3.58"/><circle fill="#9F6" fill-rule="nonzero" cx="334.61" cy="431.05" r="3.58"/><circle fill="#9F6" fill-rule="nonzero" cx="323.25" cy="442.17" r="3.58"/><circle fill="#9F6" fill-rule="nonzero" cx="334.63" cy="442.17" r="3.58"/><circle fill="#9F6" fill-rule="nonzero" cx="346" cy="431.05" r="3.58"/><circle fill="#9F6" fill-rule="nonzero" cx="368.74" cy="431.05" r="3.58"/><circle fill="#9F6" fill-rule="nonzero" cx="357.37" cy="442.17" r="3.58"/><circle fill="#9F6" fill-rule="nonzero" cx="266.39" cy="414.55" r="3.58"/><circle fill="#9F6" fill-rule="nonzero" cx="277.76" cy="403.44" r="3.58"/><circle fill="#9F6" fill-rule="nonzero" cx="300.49" cy="403.44" r="3.58"/><circle fill="#9F6" fill-rule="nonzero" cx="300.51" cy="414.55" r="3.58"/><circle fill="#9F6" fill-rule="nonzero" cx="311.88" cy="403.44" r="3.58"/><circle fill="#9F6" fill-rule="nonzero" cx="334.61" cy="403.44" r="3.58"/><circle fill="#9F6" fill-rule="nonzero" cx="323.25" cy="414.55" r="3.58"/><circle fill="#9F6" fill-rule="nonzero" cx="334.63" cy="414.55" r="3.58"/><circle fill="#9F6" fill-rule="nonzero" cx="346" cy="403.44" r="3.58"/><circle fill="#9F6" fill-rule="nonzero" cx="368.74" cy="403.44" r="3.58"/><circle fill="#9F6" fill-rule="nonzero" cx="357.37" cy="414.55" r="3.58"/><path fill="#9F6" fill-rule="nonzero" d="M311.51 431.391l.7-.715 11.367 11.117-.699.715zM345.649 403.785l.707-.707 11.243 11.243-.707.707zM299.99 403.44h1v11.12h-1zM421.47 360c0 28.18-11.56 44.26-26.84 44.26s-27.66-10.16-27.66-25.44c0-15.28 12.38-18.82 27.66-18.82h26.84z"/><circle fill="#FFF" fill-rule="nonzero" cx="328.37" cy="494.55" r="3.58"/><circle fill="#FFF" fill-rule="nonzero" cx="305.63" cy="494.55" r="3.58"/><circle fill="#FFF" fill-rule="nonzero" cx="317" cy="483.44" r="3.58"/><circle fill="#FFF" fill-rule="nonzero" cx="294.25" cy="494.55" r="3.58"/><circle fill="#FFF" fill-rule="nonzero" cx="271.51" cy="494.55" r="3.58"/><circle fill="#FFF" fill-rule="nonzero" cx="282.88" cy="483.44" r="3.58"/><circle fill="#FFF" fill-rule="nonzero" cx="260.13" cy="494.55" r="3.58"/><circle fill="#FFF" fill-rule="nonzero" cx="237.39" cy="494.55" r="3.58"/><circle fill="#FFF" fill-rule="nonzero" cx="305.63" cy="522.17" r="3.58"/><circle fill="#FFF" fill-rule="nonzero" cx="305.61" cy="511.05" r="3.58"/><circle fill="#FFF" fill-rule="nonzero" cx="317" cy="538.67" r="3.58"/><path fill="#FFF" fill-rule="nonzero" d="M305.13 511.05h1v10.96l11.28 16.38-.82.56-11.46-16.63zM237.39 494.05h22.73v1h-22.73zM317.13 482.61l11.59 11.59-.71.71-10.88-10.89-11.31 11.31-.71-.71z"/><circle fill="#9F6" fill-rule="nonzero" cx="339.74" cy="483.44" r="3.58"/><circle fill="#9F6" fill-rule="nonzero" cx="305.61" cy="483.44" r="3.58"/><circle fill="#9F6" fill-rule="nonzero" cx="271.49" cy="483.44" r="3.58"/><circle fill="#9F6" fill-rule="nonzero" cx="248.76" cy="483.44" r="3.58"/><circle fill="#9F6" fill-rule="nonzero" cx="339.74" cy="511.05" r="3.58"/><circle fill="#9F6" fill-rule="nonzero" cx="328.37" cy="522.17" r="3.58"/><circle fill="#9F6" fill-rule="nonzero" cx="317" cy="511.05" r="3.58"/><circle fill="#9F6" fill-rule="nonzero" cx="294.25" cy="522.17" r="3.58"/><circle fill="#9F6" fill-rule="nonzero" cx="271.51" cy="522.17" r="3.58"/><circle fill="#9F6" fill-rule="nonzero" cx="282.88" cy="511.05" r="3.58"/><circle fill="#9F6" fill-rule="nonzero" cx="271.49" cy="511.05" r="3.58"/><circle fill="#9F6" fill-rule="nonzero" cx="260.13" cy="522.17" r="3.58"/><circle fill="#9F6" fill-rule="nonzero" cx="237.39" cy="522.17" r="3.58"/><circle fill="#9F6" fill-rule="nonzero" cx="248.76" cy="511.05" r="3.58"/><circle fill="#9F6" fill-rule="nonzero" cx="339.74" cy="538.67" r="3.58"/><circle fill="#9F6" fill-rule="nonzero" cx="328.37" cy="549.78" r="3.58"/><circle fill="#9F6" fill-rule="nonzero" cx="305.63" cy="549.78" r="3.58"/><circle fill="#9F6" fill-rule="nonzero" cx="305.61" cy="538.67" r="3.58"/><circle fill="#9F6" fill-rule="nonzero" cx="294.25" cy="549.78" r="3.58"/><circle fill="#9F6" fill-rule="nonzero" cx="271.51" cy="549.78" r="3.58"/><circle fill="#9F6" fill-rule="nonzero" cx="282.88" cy="538.67" r="3.58"/><circle fill="#9F6" fill-rule="nonzero" cx="271.49" cy="538.67" r="3.58"/><circle fill="#9F6" fill-rule="nonzero" cx="260.13" cy="549.78" r="3.58"/><circle fill="#9F6" fill-rule="nonzero" cx="237.39" cy="549.78" r="3.58"/><circle fill="#9F6" fill-rule="nonzero" cx="248.76" cy="538.67" r="3.58"/><path fill="#9F6" fill-rule="nonzero" d="M282.511 511.388l.7-.715 11.367 11.117-.699.715zM248.525 538.89l.707-.708 11.243 11.243-.707.707zM305.13 538.67h1v11.12h-1z"/><path fill="#1B2644" fill-rule="nonzero" d="M410.56 549.67h-64l-15-83h79z"/><path d="M504.2 520.88h1c-16.3-8.63-26.84 4.79-26.84 4.79h-13.43v-15.34h14.38l20.36-7.72a15.06 15.06 0 0114 1.74l3.06 2.14 8 8a3.72 3.72 0 01-2.63 6.36l-17.9.03z" fill="#5AA529" fill-rule="nonzero"/><path d="M407.37 432.67h-20.9c7 20.57 4.28 93 26.14 93h52.28v-15.34l-12.34-1.85c-6.99-.81-.99-75.81-45.18-75.81z" fill="#1B2644" fill-rule="nonzero"/><path d="M403.53 472.94v-40.27h-33.14a44.07 44.07 0 00-42 56.76c6.477 21.511 26.285 36.236 48.75 36.24h52.28v-15.34l-12.34-1.85a99 99 0 01-46.65-20.2l44.61 12.46-11.51-27.8z" fill="#1B2644" fill-rule="nonzero"/><path d="M468.73 520.88h1c-16.34-8.63-26.89 4.79-26.89 4.79h-13.42v-15.34h14.42l20.35-7.72a15.05 15.05 0 0114 1.74l3.06 2.14 8 8a3.73 3.73 0 01-2.63 6.36l-17.89.03z" fill="#73C43D" fill-rule="nonzero"/><path fill="#0C2820" fill-rule="nonzero" d="M542.98 517.84h3.22v2.61h-3.22zM529.22 517.84h3.22v2.61h-3.22zM520.62 517.84h3.22v2.61h-3.22zM512.02 517.84h3.22v2.61h-3.22zM503.43 517.84h3.22v2.61h-3.22zM494.83 517.84h3.22v2.61h-3.22zM482.79 517.84h3.22v2.61h-3.22zM474.19 517.84h3.22v2.61h-3.22zM462.16 517.84h3.22v2.61h-3.22z"/><path fill="#333970" fill-rule="nonzero" d="M546.2 517.84h5.37v2.61h-5.37zM532.44 517.84h5.37v2.61h-5.37zM523.85 517.84h5.37v2.61h-5.37zM515.25 517.84h5.37v2.61h-5.37zM506.65 517.84h5.37v2.61h-5.37zM498.05 517.84h5.37v2.61h-5.37zM486.02 517.84h5.37v2.61h-5.37zM477.42 517.84h5.37v2.61h-5.37zM465.38 517.84h5.37v2.61h-5.37zM479.35 520.45h77.38v5.22h-77.38z"/><path fill="#0C2820" fill-rule="nonzero" d="M455.28 520.45h24.07v5.22h-24.07z"/><rect fill="#1B2644" fill-rule="nonzero" x="675.23" y="367.67" width="151" height="113" rx="4.29"/><path d="M743.27 521.67h41a4 4 0 014 4h-45v-4z" fill="#333970" fill-rule="nonzero"/><path d="M733.27 521.67h10v4h-14a4 4 0 014-4z" fill="#0C2820" fill-rule="nonzero"/><path d="M750.94 419.67h11.62a5.66 5.66 0 015.66 5.66v96.34h-17.29v-102h.01z" fill="#333970" fill-rule="nonzero"/><path d="M750.94 419.67v102h-4.67v-97.29a4.71 4.71 0 014.67-4.71z" fill="#0C2820" fill-rule="nonzero"/><rect fill="#1B2644" fill-rule="nonzero" transform="rotate(-90 620.73 443.17)" x="545.23" y="394.67" width="151" height="97" rx="3.98"/><path d="M613.27 521.67h41a4 4 0 014 4h-45v-4z" fill="#333970" fill-rule="nonzero"/><path d="M603.27 521.67h10v4h-14a4 4 0 014-4z" fill="#0C2820" fill-rule="nonzero"/><path d="M620.94 442.67h12.33a5 5 0 015 5v74h-17.29v-79h-.04z" fill="#333970" fill-rule="nonzero"/><path d="M620.72 442.67h.22v79h-4.67v-74.51a4.49 4.49 0 014.45-4.49z" fill="#0C2820" fill-rule="nonzero"/><path d="M396.63 445.86h-1.93c-7 0-13.61-1-18.67-5.43a8.33 8.33 0 01-2.76-6.27v-34.3h28.8v40.15a5.66 5.66 0 01-5.44 5.85z" fill="#5AA529" fill-rule="nonzero"/><path d="M409.65 379.81h-17.81c-8.26 0-14.95 7.13-14.95 15.91a5.74 5.74 0 000 11.46c-.26 11.35 6 18.49 17.55 18.69h3.5c9 0 16.27-7.75 16.27-17.32v-23.88a4.69 4.69 0 00-4.56-4.86z" fill="#73C43D" fill-rule="nonzero"/><path d="M74.11 523.88v-2.21l-4.8-2.77v-5.53l-.39-.23-1.53-.88-1.91-1.11v-.91l.79-.45 1.91 1.1 1.53.88.39.23 4.8-2.77 4.79 2.77.4-.23 1.52-.88-6.71-3.87-4.8 2.77-1.92-1.11-1.91 1.11 8.63-5 8.63 5 .79.45v.91l-1.92 1.11-1.52.88-.4.23v5.53l-4.79 2.77v2.22l6.71-3.88v-5.54l1.92-1.1v7.75l-8.63 5-.79.46-.79-.46-8.63-5v-7.75l1.52.88.39.22v5.54l6.72 3.88v-.01zm-10.55-13.84v12.18l5.67 3.27 4.88 2.81.79.46.79-.46 4.87-2.81 5.67-3.27v-13.09l-.79-.46-4.88-2.82-5.66-3.27-5.67 3.27-4.88 2.82-.79.46v.91z" fill="#FFF"/><path d="M162.51 509.13h-5.57v13.08h5.82a7.36 7.36 0 001.94-.24 4.48 4.48 0 001.51-.7 3.17 3.17 0 001-1.13 3.4 3.4 0 00.34-1.52 3 3 0 00-.23-1.19 2.84 2.84 0 00-.6-.9 3.5 3.5 0 00-.89-.64 5 5 0 00-1.09-.44c.266-.12.52-.264.76-.43a3 3 0 00.66-.62c.204-.26.366-.55.48-.86a3.33 3.33 0 00.18-1.14 3 3 0 00-.3-1.36 2.93 2.93 0 00-.86-1 4.24 4.24 0 00-1.35-.65 6 6 0 00-1.76-.23l-.04-.03zm41 0h-9.46v13.08h9.46v-1.34h-8v-4.58h8v-1.35h-8v-4.47h8v-1.34zm-15.54 1.36h4.39v-1.36h-10.28v1.36h4.39v11.72h1.5v-11.72zm-13 6.53l5.45-7.89h-1.72l-4.45 6.54-4.42-6.54h-1.79l5.44 7.91v5.17h1.49v-5.19zm-12.73-2.06h-3.87v-4.51h4a3.48 3.48 0 012.15.58c.492.37.772.956.75 1.57a2 2 0 01-.84 1.76 3.64 3.64 0 01-2.17.6h-.02zm.52 5.93h-4.39v-4.62h4.13a4.63 4.63 0 012.6.59c.572.358.908.996.88 1.67a2 2 0 01-.86 1.74 4 4 0 01-2.28.62h-.08zM101.89 511.78v-2.65H91.04v2.65h4v10.43h2.88v-10.43h3.97zm52.25 7.89h-7v-2.75h7v-2.56h-7v-1.45l-1.2-1.2h8.22v-2.56h-9.88v13.08h9.88v-2.56h-.02zm-11.56 2.56v-2.61h-6.53v-10.49h-2.88v13.08l9.41.02zm-11.09-8.56a4.75 4.75 0 00-.35-1.84 4 4 0 00-1-1.43 4.45 4.45 0 00-1.57-.93 6.26 6.26 0 00-2.1-.32h-5.35v13.08H124v-3.92h2.19a7.22 7.22 0 002.06-.29 5.1 5.1 0 001.69-.87 4.21 4.21 0 001.13-1.44 4.64 4.64 0 00.41-2l.01-.04zm-2.92.05a1.89 1.89 0 01-.6 1.42 2.33 2.33 0 01-1.68.57h-1.08l-1.2 1.2v-5.21h2.22a2.65 2.65 0 011.72.51c.426.37.655.917.62 1.48v.03zm-9.12 8.47v-13.06h-2.88v13.08l2.88-.02zm-4.57 0l-3.19-4.67a4.51 4.51 0 002-1.47 4.13 4.13 0 00.77-2.59 4 4 0 00-1.3-3.17 5.33 5.33 0 00-3.64-1.14h-6v13.08h2.88v-4.18h2.26l2.81 4.18 3.41-.04zm-3.31-8.58a1.72 1.72 0 01-.57 1.35 2.41 2.41 0 01-1.63.5h-1.72l-1.2 1.2v-5h2.86a2.67 2.67 0 011.67.47c.407.347.626.866.59 1.4v.08z" fill="#FFF" fill-rule="nonzero"/><path d="M369.76 539.75h460v2.92a7.08 7.08 0 01-7.08 7.08H376.84a7.08 7.08 0 01-7.08-7.08v-2.92z" fill="#0C2820" fill-rule="nonzero"/><rect fill="#6475D8" fill-rule="nonzero" x="348.76" y="525.75" width="493" height="14" rx="7"/><rect fill="#333970" fill-rule="nonzero" x="348.76" y="525.77" width="143.67" height="14" rx="7"/><path d="M261.05 271.75a9.13 9.13 0 014.06.88 8.36 8.36 0 013.11 2.58 12.42 12.42 0 012 4.2 21.23 21.23 0 01.71 5.75 17.67 17.67 0 01-.79 5.4 13.21 13.21 0 01-2.24 4.32 10.33 10.33 0 01-8.29 3.92 9 9 0 01-7-2.94v11.37h-5v-35h3a1.23 1.23 0 011.32 1l.44 2.93a16.56 16.56 0 011.76-1.79 10.58 10.58 0 014.31-2.3 10.37 10.37 0 012.61-.32zm-31.63.08a13.75 13.75 0 015.22.94 10.84 10.84 0 014 2.71 12.09 12.09 0 012.52 4.25 18.39 18.39 0 010 11.18 12 12 0 01-2.52 4.25 10.94 10.94 0 01-4 2.7 14 14 0 01-5.22.94 14.11 14.11 0 01-5.25-.94 11.15 11.15 0 01-4-2.7 11.89 11.89 0 01-2.54-4.25 18 18 0 010-11.18 12 12 0 012.54-4.25 11 11 0 014-2.71 13.91 13.91 0 015.25-.94zm-92.68-.01a12.18 12.18 0 014.42.78 9.86 9.86 0 013.49 2.29 10.5 10.5 0 012.31 3.68 13.92 13.92 0 01.84 5 3.23 3.23 0 01-.26 1.56 1.06 1.06 0 01-1 .4h-17.18a14.24 14.24 0 00.68 4.08 8.22 8.22 0 001.63 2.9 6.52 6.52 0 002.49 1.73 8.71 8.71 0 003.22.57 9.56 9.56 0 002.9-.39 14.18 14.18 0 002.12-.84c.59-.3 1.09-.58 1.49-.83a2.07 2.07 0 011.07-.39 1.11 1.11 0 011 .46l1.44 1.85a10.09 10.09 0 01-2.14 1.87 12.37 12.37 0 01-2.58 1.27c-.915.33-1.86.574-2.82.73a18.84 18.84 0 01-2.88.23 13.48 13.48 0 01-5-.92 11.14 11.14 0 01-4-2.68 12.4 12.4 0 01-2.63-4.38 18 18 0 01-.94-6 15.06 15.06 0 01.85-5.09 12.24 12.24 0 012.44-4.12 11.24 11.24 0 013.88-2.76 12.74 12.74 0 015.16-1zm52.73 0a12.22 12.22 0 014.42.78 9.86 9.86 0 013.49 2.29 10.5 10.5 0 012.31 3.68 13.92 13.92 0 01.84 5 3.23 3.23 0 01-.26 1.56 1.06 1.06 0 01-1 .4h-17.18a14.26 14.26 0 00.75 4.14 8.24 8.24 0 001.64 2.9 6.52 6.52 0 002.49 1.73 8.71 8.71 0 003.22.57 9.56 9.56 0 002.9-.39 14.63 14.63 0 002.12-.84c.59-.3 1.09-.58 1.49-.83a2.07 2.07 0 011.07-.39c.39-.032.77.142 1 .46l1.36 1.79a10.09 10.09 0 01-2.14 1.87 12.37 12.37 0 01-2.58 1.27c-.915.33-1.86.574-2.82.73a18.84 18.84 0 01-2.88.23 13.48 13.48 0 01-5-.92 11.14 11.14 0 01-4-2.68 12.4 12.4 0 01-2.63-4.38 17.7 17.7 0 01-.94-6 14.82 14.82 0 01.85-5.09 12.24 12.24 0 012.44-4.12 11.24 11.24 0 013.88-2.76 12.74 12.74 0 015.16-1zm97.97 0a12.24 12.24 0 014.43.78 9.86 9.86 0 013.49 2.29 10.5 10.5 0 012.31 3.68 13.92 13.92 0 01.84 5 3.23 3.23 0 01-.26 1.56 1.07 1.07 0 01-1 .4h-17.17c.024 1.385.25 2.76.67 4.08a8.24 8.24 0 001.64 2.9 6.52 6.52 0 002.49 1.73 8.71 8.71 0 003.22.57 9.56 9.56 0 002.9-.39 14.63 14.63 0 002.12-.84c.59-.3 1.09-.58 1.49-.83a2 2 0 011.07-.39c.39-.032.77.142 1 .46l1.43 1.85a10.09 10.09 0 01-2.14 1.87 12.37 12.37 0 01-2.58 1.27c-.915.33-1.86.574-2.82.73a18.84 18.84 0 01-2.88.23 13.48 13.48 0 01-5-.92 11.14 11.14 0 01-4-2.68 12.4 12.4 0 01-2.63-4.38 17.7 17.7 0 01-.94-6 14.82 14.82 0 01.85-5.09 12.24 12.24 0 012.44-4.12 11.15 11.15 0 013.88-2.76 12.72 12.72 0 015.15-1zm28.54-.02a7 7 0 011.61.19 4.36 4.36 0 011.33.58l-.34 3.79a.81.81 0 01-.85.7 6.58 6.58 0 01-1.08-.14 7.64 7.64 0 00-1.55-.14 5.89 5.89 0 00-2.14.35 4.87 4.87 0 00-1.66 1 6.71 6.71 0 00-1.3 1.67 15.88 15.88 0 00-1.06 2.26v16.4h-5v-26.2h2.9a1.58 1.58 0 011.12.3c.237.285.387.632.43 1l.26 3.71a12.05 12.05 0 013.05-4 6.49 6.49 0 014.28-1.47zM102 261.44a20.23 20.23 0 017.5 1.34 17 17 0 015.8 3.78 16.71 16.71 0 013.75 5.85 20.56 20.56 0 011.33 7.51 20.55 20.55 0 01-1.33 7.56 16.67 16.67 0 01-3.75 5.84 17 17 0 01-5.8 3.78 20.23 20.23 0 01-6.988 1.34H88.07v-37H102zm51.72 10.8a1.69 1.69 0 011 .28c.251.175.432.434.51.73l6.27 16.09c.22.67.42 1.33.58 2 .16.67.31 1.32.45 2 .14-.66.29-1.31.47-2s.37-1.33.61-2l6.35-16.09a1.45 1.45 0 01.54-.73 1.6 1.6 0 01.93-.28h3.92l-10.62 26.2h-4.54l-10.62-26.2h4.15zm57.37-11.86v38.06h-5.06v-38.06h5.06zm48.32 15.45a7.24 7.24 0 00-3.81 1 11.07 11.07 0 00-3 2.79l.03 12.37a7.12 7.12 0 002.66 2.27 7.77 7.77 0 003.21.65 6.32 6.32 0 005.35-2.49c1.267-1.66 1.9-4.08 1.9-7.26a18.13 18.13 0 00-.43-4.27 8.1 8.1 0 00-1.23-2.89 5 5 0 00-2-1.65 6.57 6.57 0 00-2.68-.52zm-35.6 2.46c-1.227 1.667-1.84 4-1.84 7a11.7 11.7 0 001.84 7 6.51 6.51 0 005.61 2.59 6.4 6.4 0 005.54-2.5 14.48 14.48 0 000-14.09 6.39 6.39 0 00-5.54-2.52 6.5 6.5 0 00-5.61 2.52zm-121.79-12.44h-8.41V294h8.41a14.092 14.092 0 005.27-1 11 11 0 004-2.77 12.73 12.73 0 002.57-4.43 18.07 18.07 0 00.9-5.88 18.07 18.07 0 00-.9-5.91 12.59 12.59 0 00-2.57-4.44 11 11 0 00-4-2.77 13.89 13.89 0 00-5.27-.95zm29.83 11.5a8.88 8.88 0 00-2.31 5.08l13.71-.03a8.68 8.68 0 00-.41-2.73 6.23 6.23 0 00-1.26-2.19 5.76 5.76 0 00-2-1.45 6.85 6.85 0 00-2.73-.51 6.72 6.72 0 00-5 1.83zm150.7-.03a8.88 8.88 0 00-2.31 5.08h13.72a8.41 8.41 0 00-.43-2.76 6.06 6.06 0 00-1.25-2.19 5.76 5.76 0 00-2-1.45 6.85 6.85 0 00-2.73-.51 6.71 6.71 0 00-5 1.83zm-97.98 0a8.88 8.88 0 00-2.31 5.08h13.72a8.41 8.41 0 00-.43-2.76 6.06 6.06 0 00-1.25-2.19 5.76 5.76 0 00-2-1.45 6.85 6.85 0 00-2.73-.51 6.71 6.71 0 00-5 1.83z" fill="#FFF" fill-rule="nonzero"/><g fill-rule="nonzero" transform="translate(85.65 181.2)"><use fill="#000" xlink:href="#c"/><use fill="#9F6" xlink:href="#c"/></g></g></g></g></svg>